<?xml version="1.0" encoding="UTF-8" standalone="no"?>
<!DOCTYPE svg PUBLIC "-//W3C//DTD SVG 1.1//EN"
 "http://www.w3.org/Graphics/SVG/1.1/DTD/svg11.dtd">
<!-- Generated by graphviz version 2.43.0 (0)
 -->
<!-- Title: mygraph Pages: 1 -->
<svg width="685pt" height="404pt"
 viewBox="0.00 0.00 685.43 404.00" xmlns="http://www.w3.org/2000/svg" xmlns:xlink="http://www.w3.org/1999/xlink">
<g id="graph0" class="graph" transform="scale(1 1) rotate(0) translate(4 400)">
<title>mygraph</title>
<polygon fill="white" stroke="transparent" points="-4,4 -4,-400 681.43,-400 681.43,4 -4,4"/>
<!-- //absl/random:random -->
<g id="node1" class="node">
<title>//absl/random:random</title>
<polygon fill="none" stroke="black" points="309,-396 159,-396 159,-360 309,-360 309,-396"/>
<text text-anchor="middle" x="234" y="-374.3" font-family="Helvetica,Arial,sans-serif" font-size="14.00">//absl/random:random</text>
</g>
<!-- //absl/random:distributions -->
<g id="node2" class="node">
<title>//absl/random:distributions</title>
<polygon fill="none" stroke="black" points="176,-252 0,-252 0,-216 176,-216 176,-252"/>
<text text-anchor="middle" x="88" y="-230.3" font-family="Helvetica,Arial,sans-serif" font-size="14.00">//absl/random:distributions</text>
</g>
<!-- //absl/random:random&#45;&gt;//absl/random:distributions -->
<g id="edge1" class="edge">
<title>//absl/random:random&#45;&gt;//absl/random:distributions</title>
<path fill="none" stroke="black" d="M216.39,-359.87C190.63,-334.82 142.55,-288.05 113.09,-259.41"/>
<polygon fill="black" stroke="black" points="115.28,-256.65 105.67,-252.19 110.4,-261.67 115.28,-256.65"/>
</g>
<!-- //absl/random:seed_sequences -->
<g id="node3" class="node">
<title>//absl/random:seed_sequences</title>
<polygon fill="none" stroke="black" points="499,-324 293,-324 293,-288 499,-288 499,-324"/>
<text text-anchor="middle" x="396" y="-302.3" font-family="Helvetica,Arial,sans-serif" font-size="14.00">//absl/random:seed_sequences</text>
</g>
<!-- //absl/random:random&#45;&gt;//absl/random:seed_sequences -->
<g id="edge2" class="edge">
<title>//absl/random:random&#45;&gt;//absl/random:seed_sequences</title>
<path fill="none" stroke="black" d="M273.63,-359.88C295.78,-350.31 323.56,-338.3 347.06,-328.15"/>
<polygon fill="black" stroke="black" points="348.71,-331.25 356.5,-324.07 345.93,-324.82 348.71,-331.25"/>
</g>
<!-- //absl/random/internal:pool_urbg -->
<g id="node4" class="node">
<title>//absl/random/internal:pool_urbg</title>
<polygon fill="none" stroke="black" points="343.5,-180 130.5,-180 130.5,-144 343.5,-144 343.5,-180"/>
<text text-anchor="middle" x="237" y="-158.3" font-family="Helvetica,Arial,sans-serif" font-size="14.00">//absl/random/internal:pool_urbg</text>
</g>
<!-- //absl/random:random&#45;&gt;//absl/random/internal:pool_urbg -->
<g id="edge3" class="edge">
<title>//absl/random:random&#45;&gt;//absl/random/internal:pool_urbg</title>
<path fill="none" stroke="black" d="M234.24,-359.85C234.76,-322.83 235.99,-235.18 236.62,-190.39"/>
<polygon fill="black" stroke="black" points="240.12,-190.28 236.76,-180.23 233.12,-190.18 240.12,-190.28"/>
</g>
<!-- //absl/random/internal:nonsecure_base -->
<g id="node5" class="node">
<title>//absl/random/internal:nonsecure_base</title>
<polygon fill="none" stroke="black" points="522,-252 270,-252 270,-216 522,-216 522,-252"/>
<text text-anchor="middle" x="396" y="-230.3" font-family="Helvetica,Arial,sans-serif" font-size="14.00">//absl/random/internal:nonsecure_base</text>
</g>
<!-- //absl/random:random&#45;&gt;//absl/random/internal:nonsecure_base -->
<g id="edge4" class="edge">
<title>//absl/random:random&#45;&gt;//absl/random/internal:nonsecure_base</title>
<path fill="none" stroke="black" d="M239.94,-359.88C247.5,-340.29 262.22,-308.31 284,-288 298.2,-274.76 316.32,-264.26 333.82,-256.22"/>
<polygon fill="black" stroke="black" points="335.69,-259.23 343.45,-252.01 332.89,-252.81 335.69,-259.23"/>
</g>
<!-- //absl/strings:strings -->
<g id="node6" class="node">
<title>//absl/strings:strings</title>
<polygon fill="none" stroke="black" points="300.5,-36 163.5,-36 163.5,0 300.5,0 300.5,-36"/>
<text text-anchor="middle" x="232" y="-14.3" font-family="Helvetica,Arial,sans-serif" font-size="14.00">//absl/strings:strings</text>
</g>
<!-- //absl/random:distributions&#45;&gt;//absl/strings:strings -->
<g id="edge5" class="edge">
<title>//absl/random:distributions&#45;&gt;//absl/strings:strings</title>
<path fill="none" stroke="black" d="M92.33,-215.76C97.46,-197.18 107.09,-167.17 121,-144 144.32,-105.15 180.47,-67.2 205.14,-43.5"/>
<polygon fill="black" stroke="black" points="207.86,-45.74 212.71,-36.32 203.04,-40.66 207.86,-45.74"/>
</g>
<!-- //absl/random:seed_sequences&#45;&gt;//absl/random/internal:pool_urbg -->
<g id="edge8" class="edge">
<title>//absl/random:seed_sequences&#45;&gt;//absl/random/internal:pool_urbg</title>
<path fill="none" stroke="black" d="M317.33,-287.95C296.58,-280.06 275.86,-268.6 261,-252 245.87,-235.1 240.14,-209.63 238.03,-190.26"/>
<polygon fill="black" stroke="black" points="241.52,-189.89 237.2,-180.22 234.54,-190.47 241.52,-189.89"/>
</g>
<!-- //absl/random:seed_sequences&#45;&gt;//absl/random/internal:nonsecure_base -->
<g id="edge9" class="edge">
<title>//absl/random:seed_sequences&#45;&gt;//absl/random/internal:nonsecure_base</title>
<path fill="none" stroke="black" d="M396,-287.7C396,-279.98 396,-270.71 396,-262.11"/>
<polygon fill="black" stroke="black" points="399.5,-262.1 396,-252.1 392.5,-262.1 399.5,-262.1"/>
</g>
<!-- //absl/random/internal:seed_material -->
<g id="node7" class="node">
<title>//absl/random/internal:seed_material</title>
<polygon fill="none" stroke="black" points="491,-108 253,-108 253,-72 491,-72 491,-108"/>
<text text-anchor="middle" x="372" y="-86.3" font-family="Helvetica,Arial,sans-serif" font-size="14.00">//absl/random/internal:seed_material</text>
</g>
<!-- //absl/random:seed_sequences&#45;&gt;//absl/random/internal:seed_material -->
<g id="edge6" class="edge">
<title>//absl/random:seed_sequences&#45;&gt;//absl/random/internal:seed_material</title>
<path fill="none" stroke="black" d="M480.49,-287.98C579.55,-264.29 723.08,-216.01 663,-144 641.92,-118.73 569,-105.48 501.44,-98.55"/>
<polygon fill="black" stroke="black" points="501.38,-95.02 491.08,-97.53 500.69,-101.99 501.38,-95.02"/>
</g>
<!-- //absl/random/internal:salted_seed_seq -->
<g id="node8" class="node">
<title>//absl/random/internal:salted_seed_seq</title>
<polygon fill="none" stroke="black" points="654,-180 400,-180 400,-144 654,-144 654,-180"/>
<text text-anchor="middle" x="527" y="-158.3" font-family="Helvetica,Arial,sans-serif" font-size="14.00">//absl/random/internal:salted_seed_seq</text>
</g>
<!-- //absl/random:seed_sequences&#45;&gt;//absl/random/internal:salted_seed_seq -->
<g id="edge7" class="edge">
<title>//absl/random:seed_sequences&#45;&gt;//absl/random/internal:salted_seed_seq</title>
<path fill="none" stroke="black" d="M483.6,-287.89C502.22,-280.06 519.65,-268.64 531,-252 543.28,-233.99 540.83,-208.84 536.14,-189.87"/>
<polygon fill="black" stroke="black" points="539.46,-188.74 533.39,-180.05 532.72,-190.63 539.46,-188.74"/>
</g>
<!-- //absl/random/internal:pool_urbg&#45;&gt;//absl/random/internal:seed_material -->
<g id="edge13" class="edge">
<title>//absl/random/internal:pool_urbg&#45;&gt;//absl/random/internal:seed_material</title>
<path fill="none" stroke="black" d="M270.02,-143.88C288.08,-134.51 310.65,-122.81 329.95,-112.8"/>
<polygon fill="black" stroke="black" points="331.58,-115.9 338.85,-108.19 328.36,-109.69 331.58,-115.9"/>
</g>
<!-- //absl/random/internal:nonsecure_base&#45;&gt;//absl/random/internal:pool_urbg -->
<g id="edge10" class="edge">
<title>//absl/random/internal:nonsecure_base&#45;&gt;//absl/random/internal:pool_urbg</title>
<path fill="none" stroke="black" d="M357.1,-215.88C335.37,-206.31 308.1,-194.3 285.04,-184.15"/>
<polygon fill="black" stroke="black" points="286.33,-180.89 275.77,-180.07 283.51,-187.3 286.33,-180.89"/>
</g>
<!-- //absl/random/internal:nonsecure_base&#45;&gt;//absl/random/internal:seed_material -->
<g id="edge12" class="edge">
<title>//absl/random/internal:nonsecure_base&#45;&gt;//absl/random/internal:seed_material</title>
<path fill="none" stroke="black" d="M393.11,-215.87C389.01,-191.67 381.5,-147.21 376.63,-118.39"/>
<polygon fill="black" stroke="black" points="380.02,-117.47 374.91,-108.19 373.12,-118.63 380.02,-117.47"/>
</g>
<!-- //absl/random/internal:nonsecure_base&#45;&gt;//absl/random/internal:salted_seed_seq -->
<g id="edge11" class="edge">
<title>//absl/random/internal:nonsecure_base&#45;&gt;//absl/random/internal:salted_seed_seq</title>
<path fill="none" stroke="black" d="M428.05,-215.88C445.49,-206.55 467.27,-194.92 485.94,-184.94"/>
<polygon fill="black" stroke="black" points="487.66,-187.99 494.83,-180.19 484.36,-181.82 487.66,-187.99"/>
</g>
<!-- //absl/random/internal:seed_material&#45;&gt;//absl/strings:strings -->
<g id="edge15" class="edge">
<title>//absl/random/internal:seed_material&#45;&gt;//absl/strings:strings</title>
<path fill="none" stroke="black" d="M337.75,-71.88C318.94,-62.47 295.42,-50.71 275.33,-40.67"/>
<polygon fill="black" stroke="black" points="276.89,-37.53 266.38,-36.19 273.76,-43.79 276.89,-37.53"/>
</g>
<!-- //absl/random/internal:salted_seed_seq&#45;&gt;//absl/random/internal:seed_material -->
<g id="edge14" class="edge">
<title>//absl/random/internal:salted_seed_seq&#45;&gt;//absl/random/internal:seed_material</title>
<path fill="none" stroke="black" d="M489.08,-143.88C467.99,-134.35 441.54,-122.41 419.13,-112.28"/>
<polygon fill="black" stroke="black" points="420.35,-108.99 409.79,-108.07 417.47,-115.37 420.35,-108.99"/>
</g>
</g>
</svg>
